HIERARCHY
ROOT Pelvis
{
	OFFSET 0.000000 0.000000 0.000000
	CHANNELS 6 Xposition Yposition Zposition Zrotation Yrotation Xrotation 
	JOINT Left_hip
	{
		OFFSET 0.068973 -0.091024 -0.007589
		CHANNELS 3 Zrotation Yrotation Xrotation
		JOINT Left_knee
		{
			OFFSET 0.036482 -0.391037 -0.003979
			CHANNELS 3 Zrotation Yrotation Xrotation
			JOINT Left_ankle
			{
				OFFSET -0.012239 -0.415469 -0.043440
				CHANNELS 3 Zrotation Yrotation Xrotation
				JOINT Left_foot
				{
					OFFSET 0.023806 -0.058558 0.118702
					CHANNELS 3 Zrotation Yrotation Xrotation
					End Site
					{
						OFFSET 0.000000 0.000000 0.000000
					}
				}
			}
		}
	}
	JOINT Right_hip
	{
		OFFSET -0.066552 -0.090468 -0.003847
		CHANNELS 3 Zrotation Yrotation Xrotation
		JOINT Right_knee
		{
			OFFSET -0.042435 -0.398340 -0.006400
			CHANNELS 3 Zrotation Yrotation Xrotation
			JOINT Right_ankle
			{
				OFFSET 0.014931 -0.415421 -0.041327
				CHANNELS 3 Zrotation Yrotation Xrotation
				JOINT Right_foot
				{
					OFFSET -0.021472 -0.049410 0.121889
					CHANNELS 3 Zrotation Yrotation Xrotation
					End Site
					{
						OFFSET 0.000000 0.000000 0.000000
					}
				}
			}
		}
	}
	JOINT Spine1
	{
		OFFSET -0.002904 0.105700 -0.022855
		CHANNELS 3 Zrotation Yrotation Xrotation
		JOINT Spine2
		{
			OFFSET 0.004179 0.132554 -0.002501
			CHANNELS 3 Zrotation Yrotation Xrotation
			JOINT Spine3
			{
				OFFSET 0.001987 0.049603 0.025988
				CHANNELS 3 Zrotation Yrotation Xrotation
				JOINT Neck
				{
					OFFSET -0.003935 0.211336 -0.045638
					CHANNELS 3 Zrotation Yrotation Xrotation
					JOINT Head
					{
						OFFSET 0.003906 0.065991 0.051018
						CHANNELS 3 Zrotation Yrotation Xrotation
						End Site
						{
							OFFSET 0.000000 0.000000 0.000000
						}
					}
				}
				JOINT Left_collar
				{
					OFFSET 0.072882 0.117751 -0.036270
					CHANNELS 3 Zrotation Yrotation Xrotation
					JOINT Left_shoulder
					{
						OFFSET 0.082118 0.032630 -0.005771
						CHANNELS 3 Zrotation Yrotation Xrotation
						JOINT Left_elbow
						{
							OFFSET 0.263305 -0.015144 -0.028095
							CHANNELS 3 Zrotation Yrotation Xrotation
							JOINT Left_wrist
							{
								OFFSET 0.250741 0.010115 -0.000759
								CHANNELS 3 Zrotation Yrotation Xrotation
								JOINT Left_palm
								{
									OFFSET 0.080683 -0.009989 -0.013613
									CHANNELS 3 Zrotation Yrotation Xrotation
									End Site
									{
										OFFSET 0.000000 0.000000 0.000000
									}
								}
							}
						}
					}
				}
				JOINT Right_collar
				{
					OFFSET -0.074811 0.116132 -0.040385
					CHANNELS 3 Zrotation Yrotation Xrotation
					JOINT Right_shoulder
					{
						OFFSET -0.085089 0.032943 -0.007484
						CHANNELS 3 Zrotation Yrotation Xrotation
						JOINT Right_elbow
						{
							OFFSET -0.254763 -0.014219 -0.020321
							CHANNELS 3 Zrotation Yrotation Xrotation
							JOINT Right_wrist
							{
								OFFSET -0.256597 0.009233 -0.005063
								CHANNELS 3 Zrotation Yrotation Xrotation
								JOINT Right_palm
								{
									OFFSET -0.080528 -0.007219 -0.010379
									CHANNELS 3 Zrotation Yrotation Xrotation
									End Site
									{
										OFFSET 0.000000 0.000000 0.000000
									}
								}
							}
						}
					}
				}
			}
		}
	}
}
MOTION
Frames: 10
Frame Time: 0.100000
0.129145 -0.084366 0.465715 178.809340 28.589568 -29.769766 6.519829 6.436926 19.244256 0.433158 -10.264687 -2.558356 -13.937391 10.929705 6.265426 14.893046 7.344566 -6.461158 -3.168797 -10.041268 25.872159 3.552101 -3.022378 -6.101897 6.389935 -16.633686 -2.221502 -10.851457 10.126505 -0.162914 1.879573 3.700171 5.727597 3.601794 -4.770142 14.968037 1.468548 1.501565 0.701797 -3.250204 6.043143 15.241037 -3.442421 -13.090988 10.553894 -1.061536 -9.512580 -1.009218 -17.279139 -10.716355 -0.979964 -1.552246 -56.510728 33.814590 -17.643052 -1.474673 20.109747 -5.906335 -1.615889 -15.744956 18.352080 14.170857 5.181095 51.412724 3.488163 8.113169 -9.028529 28.441561 3.711554 3.416465 -1.019286 2.934448 13.842474 7.301969 -10.043649 
0.135862 -0.084149 0.466402 178.857066 26.939393 -28.574505 7.574300 5.587548 17.163916 -1.207859 -8.431618 -0.870334 -10.660358 10.791173 6.886878 9.762034 7.631120 -7.407209 -2.419028 -9.839614 24.267843 4.360938 -4.452227 -5.985683 4.209252 -12.675141 -1.699924 -3.576311 6.274411 2.041896 1.284900 3.539102 5.576646 3.417997 -4.103646 12.409963 1.434636 0.909403 2.271596 -2.558413 6.532794 14.140304 -4.171255 -9.883853 11.078615 -3.610601 -9.731733 -0.061564 -20.060235 -15.775884 4.374938 -14.510311 -74.013056 51.753192 -1.767927 -4.460683 25.785701 -7.870708 -2.111782 -15.712324 20.555106 12.773863 5.170099 50.841442 3.970427 10.241239 -4.322767 27.740025 9.634558 0.783175 -0.251712 3.569472 12.328265 6.291459 -9.211467 
0.141398 -0.084062 0.466474 179.321844 24.107768 -28.214342 8.415949 5.855607 16.661476 -1.545408 -6.432132 0.637148 -10.217065 10.698733 6.976718 8.762859 8.051731 -8.288636 -1.992767 -9.634093 24.126970 4.307164 -3.865027 -6.499087 4.706011 -10.523893 -1.261246 -3.507056 6.062712 2.245061 0.828606 2.917075 5.585269 2.855789 -4.590868 12.525943 1.327117 0.321672 2.061102 -3.253272 9.317355 13.294450 -3.974919 -6.572865 11.272714 -3.265402 -13.091931 -0.602385 -22.651821 -21.130044 7.473435 -75.088758 -81.807287 117.948796 5.463062 -7.738703 27.381741 -8.415838 -2.189318 -14.421694 20.720339 13.977670 5.970440 52.925809 3.667661 11.088146 -2.850105 25.699209 12.461550 -2.596602 -0.111663 4.859965 12.829996 6.465182 -9.749379 
0.145405 -0.084172 0.466534 179.718908 20.470218 -27.647602 9.214017 6.183789 16.454563 -1.523247 -3.789896 1.504573 -9.034763 10.827882 6.991936 6.939513 8.075716 -8.949527 -1.516363 -9.652690 23.400178 4.303254 -3.056889 -6.443368 5.372695 -8.129159 -0.748606 -3.370356 6.157472 2.397315 0.349923 2.492723 5.012615 2.884519 -5.450256 12.358683 1.594355 -0.330883 1.964596 -4.438080 12.651457 12.891691 -3.672310 -3.056318 11.909606 -1.846711 -18.014058 -2.314937 -25.117475 -29.700461 9.260737 -118.300931 -78.780597 162.982171 9.613535 -10.010596 25.671009 -8.322118 -2.040933 -11.130459 20.405640 14.538328 6.636080 53.977441 2.561528 11.621430 -2.554889 24.488308 13.609393 -3.756786 0.257439 4.634216 12.987435 6.646030 -9.650287 
0.147127 -0.084209 0.466371 179.684978 17.519290 -27.293176 9.809064 5.681699 16.650914 -1.244389 -1.369143 1.732341 -7.563955 11.242477 6.681091 4.845009 7.276317 -8.956175 -0.688502 -9.347360 22.830434 4.304725 -2.382999 -6.408446 5.568314 -6.621816 -0.401928 -2.718782 6.341923 2.771354 -0.497559 2.239191 4.040659 3.476506 -6.772007 12.227748 2.251798 -1.278717 2.206250 -5.995982 15.842203 12.003897 -2.881449 -0.164548 12.407065 1.552484 -24.175443 -5.061308 -28.240274 -41.250110 10.935192 -128.856721 -78.196089 169.755142 8.970916 -10.840255 14.711707 -6.053549 -1.150967 -3.753987 18.894407 14.503069 6.592482 54.970939 1.419240 12.505572 -3.489086 23.000721 12.527560 -0.915077 0.283916 1.708683 11.273446 6.355286 -8.022186 
0.147860 -0.084211 0.466971 -179.710039 13.904228 -26.294254 10.116019 6.325740 16.627476 -0.980282 0.412840 1.702503 -5.966265 11.038942 7.340054 2.163156 8.220978 -9.683565 -0.096095 -8.658696 21.292383 3.965130 -1.463131 -5.719163 5.526331 -5.148366 -0.124893 -1.945625 6.239093 2.605449 -0.680334 1.348974 3.795369 3.329945 -7.816552 10.920919 1.976432 -1.973264 1.669676 -7.243407 19.410792 11.909484 -3.344788 2.787302 12.300962 4.832605 -27.521067 -8.051120 -27.560175 -49.275030 9.238212 -121.446140 -80.154645 162.952267 4.192892 -9.242847 15.684924 -5.006256 -0.716345 -1.619222 17.748131 14.152877 6.352739 56.933514 0.569576 12.932382 -4.890785 20.860149 12.345162 2.858945 -0.870263 -0.120124 11.315041 6.396427 -7.598280 
0.148882 -0.084499 0.467475 -178.988246 10.250140 -25.797213 10.411994 7.223900 16.960179 -0.681435 1.269124 2.161190 -5.015924 11.176382 7.767173 0.827148 10.047541 -10.748377 0.187053 -7.923755 20.657531 3.764087 0.199546 -5.510005 6.055268 -4.373193 0.328462 -2.437713 6.491259 1.494367 -0.484795 1.223002 3.165999 3.239271 -7.737329 10.524647 1.751065 -2.069291 1.718960 -7.081997 21.438682 12.316725 -4.019641 4.164518 11.769232 6.778857 -27.954644 -10.099151 -24.102780 -52.501139 4.606644 -84.722328 -83.536444 127.943046 -0.429661 -6.329933 23.245349 -5.207332 -0.790548 -3.362467 16.662087 12.971522 5.731662 58.598509 -0.503660 12.599985 -6.033544 20.428409 12.165307 5.485474 -1.941681 -1.251977 12.602662 6.616858 -8.338664 
0.149574 -0.084800 0.468775 -178.494759 8.347786 -25.613658 10.523675 7.441864 17.141763 -0.748123 1.752724 2.580795 -4.935545 11.961587 7.878098 1.022576 9.781821 -10.581110 0.296024 -7.459409 20.587643 3.613745 1.545334 -5.676649 5.920968 -4.413398 0.660682 -2.811464 6.540037 0.910123 0.037597 0.912619 2.803788 3.150372 -7.578058 10.019194 1.724272 -2.092918 1.759355 -7.553319 22.047573 12.466940 -4.150228 6.085731 10.997731 5.816271 -26.018772 -9.406521 -22.308796 -49.824257 1.264138 -10.964485 -84.193208 50.121833 -0.817513 -4.642979 19.453030 -5.091400 -0.893891 -2.864513 16.530827 11.802597 5.810513 58.883706 -0.940812 12.818404 -6.019481 19.831403 11.461905 6.030549 -2.225031 -1.994309 12.569229 6.535394 -7.977532 
0.149964 -0.083811 0.469228 -178.506104 8.527684 -26.048792 10.778861 7.661968 17.443362 -0.971782 1.562725 2.916863 -5.527004 12.189983 7.183452 2.017915 9.394471 -10.007394 0.162784 -7.422963 21.156211 3.773765 2.059162 -5.740631 5.523196 -4.986373 0.383082 -2.964985 6.624876 1.029791 0.872983 0.493376 3.178763 2.973098 -7.352897 9.671161 1.909277 -2.208701 1.721845 -6.145135 22.966433 12.681270 -3.956846 9.898972 11.259082 0.476815 -23.884907 -6.563361 -23.866710 -43.913967 0.700654 19.349362 -76.672432 15.455869 1.905791 -4.541117 17.758548 -5.707383 -1.499737 -4.117052 18.105330 10.987491 6.176223 56.978083 -0.525713 12.792123 -5.354851 19.053496 10.520680 4.152591 -1.550030 -0.804631 12.427267 6.377365 -7.524362 
0.147372 -0.082586 0.469500 -178.589556 9.827928 -26.885650 10.418138 7.400221 17.712785 -1.058491 1.576485 3.661138 -5.523012 11.596270 6.156035 2.421578 9.482111 -9.813257 -0.605163 -7.574292 22.617496 4.253622 1.823517 -6.447491 4.584858 -5.252485 0.139273 -2.174409 6.063002 1.919901 2.533776 0.306746 3.853389 2.436218 -6.353616 9.894446 1.827980 -2.039324 1.480416 -3.924465 22.063582 12.794255 -3.781420 13.794783 12.593898 -9.054872 -20.400553 -2.344107 -31.764740 -37.268293 4.464660 25.160453 -69.590890 4.888052 1.803061 -4.416790 11.851150 -6.324292 -2.223979 -4.454905 21.333677 9.688473 7.000246 53.553048 0.559949 12.390881 -6.093862 19.662838 6.288732 3.140634 -0.388707 -0.097718 12.246033 6.259182 -6.725281 
